<svg width="112" height="87" viewBox="0 0 112 87" xmlns="http://www.w3.org/2000/svg" xmlns:xlink="http://www.w3.org/1999/xlink"><title>cmb-simple-operation</title><defs><path d="M.645 39.933c1.53.3 3.111.458 4.73.458 13.556 0 24.548-11.068 24.548-24.722A24.726 24.726 0 0 0 24.742.476H.645v39.457z" id="a"/><path d="M18.09 25.086c.016-.363.024-.727.024-1.093C18.114 12.82 10.754 3.378.651.316v24.77h17.44z" id="c"/></defs><g fill="none" fill-rule="evenodd"><path d="M67.74 45.584c0 17.61-14.176 31.888-31.665 31.888-17.487 0-31.663-14.277-31.663-31.888 0-17.61 14.176-31.888 31.663-31.888 16.303 0 29.728 12.408 31.473 28.359.127 1.158.192 2.336.192 3.53z" stroke="#999" stroke-linecap="round" stroke-linejoin="round"/><g transform="translate(30.702 29.915)"><mask id="b" fill="#fff"><use xlink:href="#a"/></mask><path d="M.645 41.138L41.022.476" stroke="#999" stroke-linecap="round" stroke-linejoin="round" mask="url(#b)"/></g><g transform="translate(42.51 21.59)"><mask id="d" fill="#fff"><use xlink:href="#c"/></mask><path d="M.65 25.086l40.377-40.662" stroke="#999" stroke-linecap="round" stroke-linejoin="round" mask="url(#d)"/></g><path d="M40.711 50.722a2.006 2.006 0 0 1-2 2.014 2.006 2.006 0 0 1-1.997-2.014c0-1.111.895-2.013 1.998-2.013 1.104 0 1.999.902 1.999 2.013z" stroke="#999" stroke-linecap="round" stroke-linejoin="round"/><g stroke="#999" stroke-linecap="round" stroke-linejoin="round"><path d="M60.625 45.584c0 13.654-10.991 24.722-24.549 24.722s-24.55-11.068-24.55-24.722c0-13.654 10.992-24.722 24.55-24.722S60.625 31.93 60.625 45.584zM75.637 26.997h35.079M75.637 64.44h35.079M78.885 45.718h22.978M7.546.595v3.712M7.546 10.891v3.713M14.5 7.599h-3.686M4.276 7.599H.59M61.178 77.04v2.48M61.178 83.92v2.481M65.826 81.72h-2.463M58.993 81.72H56.53M3.9 81.618v-.807M3.9 78.069v-.85M1.716 79.418h.665M5.395 79.418h.69"/></g></g></svg>